<svg width="35" height="35" viewBox="0 0 35 35" fill="none" xmlns="http://www.w3.org/2000/svg">
<path d="M16.24 17.6702L15.3712 21.1925C16.4437 21.4618 19.7516 22.536 20.2405 20.549C20.7515 18.4768 17.3125 17.9409 16.24 17.6702ZM17.4251 12.8632L16.6375 16.0578C17.5306 16.283 20.2837 17.2012 20.7298 15.3939C21.1946 13.5085 18.3183 13.0883 17.4252 12.8632H17.4251ZM17.5 2.91675C14.6157 2.91675 11.7962 3.77205 9.39796 5.37448C6.99974 6.97692 5.13056 9.25453 4.02678 11.9193C2.92301 14.584 2.63421 17.5163 3.19691 20.3451C3.75961 23.174 5.14854 25.7725 7.18805 27.8121C9.22757 29.8516 11.8261 31.2405 14.655 31.8032C17.4838 32.3659 20.4161 32.0771 23.0808 30.9733C25.7456 29.8695 28.0232 28.0004 29.6256 25.6021C31.2281 23.2039 32.0834 20.3844 32.0834 17.5001C32.0834 15.585 31.7062 13.6886 30.9733 11.9193C30.2404 10.1499 29.1662 8.5423 27.812 7.18811C26.4578 5.83392 24.8502 4.75972 23.0808 4.02684C21.3115 3.29396 19.4151 2.91675 17.5 2.91675ZM23.8554 15.4225C23.8248 15.982 23.6101 16.5157 23.2448 16.9406C22.8794 17.3655 22.3839 17.6577 21.8353 17.7719C22.1959 17.9187 22.5221 18.1386 22.7935 18.4177C23.0649 18.6968 23.2755 19.0292 23.412 19.3937C23.5486 19.7583 23.6082 20.1472 23.587 20.5359C23.5658 20.9247 23.4644 21.3048 23.289 21.6524C22.4351 24.1201 20.4064 24.3284 17.7086 23.812L17.0538 26.4657L15.4718 26.067L16.118 23.4488C15.7079 23.3458 15.2889 23.2365 14.8572 23.118L14.2087 25.7483L12.6284 25.3496L13.2832 22.6909C12.9137 22.5952 12.5383 22.4935 12.1553 22.3965L10.0965 21.8774L10.8819 20.0459C10.8819 20.0459 12.0476 20.3594 12.0318 20.3362C12.1044 20.3593 12.1808 20.3679 12.2567 20.3612C12.3326 20.3546 12.4063 20.333 12.4738 20.2977C12.5412 20.2623 12.601 20.2139 12.6496 20.1553C12.6982 20.0967 12.7347 20.029 12.7569 19.9561L14.5323 12.7552C14.5551 12.5345 14.4908 12.3137 14.353 12.1399C14.2153 11.966 14.0151 11.8529 13.7951 11.8246C13.8199 11.8077 12.646 11.5356 12.646 11.5356L13.0669 9.82665L15.2487 10.3776L15.2469 10.3859C15.5749 10.4683 15.9129 10.5467 16.2572 10.6261L16.9056 7.99831L18.4868 8.39706L17.8515 10.9733C18.276 11.0713 18.7032 11.1702 19.1191 11.275L19.7499 8.71564L21.332 9.1144L20.684 11.743C22.6815 12.4389 24.1424 13.4821 23.8554 15.4225Z" fill="white"/>
</svg>
