<svg width="36" height="35" viewBox="0 0 36 35" fill="none" xmlns="http://www.w3.org/2000/svg">
<path d="M18 3.27637C14.4382 3.27651 10.9927 4.50882 8.27993 6.75281C5.56718 8.9968 3.76423 12.106 3.19368 15.5242C2.62313 18.9423 3.32221 22.4463 5.16583 25.4091C7.00945 28.372 9.87731 30.6004 13.2563 31.6956C14.0063 31.8233 14.2875 31.3858 14.2875 31.0029C14.2875 30.6566 14.2687 29.5081 14.2687 28.2868C10.5 28.9612 9.52498 27.3936 9.22498 26.5733C8.89209 25.7755 8.36439 25.0685 7.68748 24.5133C7.16248 24.2399 6.41248 23.5654 7.66872 23.5472C8.1484 23.5978 8.60846 23.7601 9.00993 24.0203C9.41139 24.2805 9.74243 24.631 9.97498 25.042C10.1801 25.4003 10.456 25.7157 10.7868 25.9702C11.1175 26.2247 11.4967 26.4132 11.9025 26.525C12.3084 26.6367 12.7329 26.6695 13.1518 26.6215C13.5707 26.5735 13.9757 26.4456 14.3437 26.2451C14.4086 25.5037 14.7485 24.8105 15.3 24.2946C11.9625 23.9301 8.47498 22.6722 8.47498 17.0941C8.4539 15.6447 9.00401 14.2425 10.0125 13.1748C9.5539 11.9152 9.60756 10.5328 10.1625 9.31027C10.1625 9.31027 11.4187 8.92744 14.2875 10.8051C16.7419 10.1488 19.333 10.1488 21.7875 10.8051C24.6562 8.90922 25.9125 9.31027 25.9125 9.31027C26.4675 10.5327 26.5211 11.9152 26.0625 13.1748C27.074 14.2406 27.6246 15.6441 27.6 17.0941C27.6 22.6904 24.0937 23.9301 20.7562 24.2946C21.1142 24.6474 21.3899 25.0709 21.5646 25.5364C21.7393 26.0019 21.8089 26.4986 21.7687 26.9926C21.7687 28.9431 21.75 30.5108 21.75 31.003C21.75 31.3858 22.0312 31.8415 22.7812 31.6957C26.1542 30.5915 29.0138 28.3579 30.8496 25.3935C32.6854 22.4291 33.3778 18.927 32.8033 15.5121C32.2288 12.0973 30.4247 8.99212 27.7132 6.75086C25.0016 4.50961 21.559 3.27817 18 3.27637Z" fill="white"/>
</svg>
