<svg width="35" height="35" viewBox="0 0 35 35" fill="none" xmlns="http://www.w3.org/2000/svg">
<path d="M17.4917 2.91675C14.6074 2.91675 11.7879 3.77205 9.38966 5.37448C6.99144 6.97692 5.12226 9.25453 4.01848 11.9193C2.9147 14.584 2.62591 17.5163 3.18861 20.3451C3.75131 23.174 5.14024 25.7725 7.17975 27.8121C9.21927 29.8516 11.8178 31.2405 14.6467 31.8032C17.4755 32.3659 20.4078 32.0771 23.0725 30.9733C25.7373 29.8695 28.0149 28.0004 29.6173 25.6021C31.2198 23.2039 32.0751 20.3844 32.0751 17.5001C32.0752 15.5849 31.6981 13.6885 30.9653 11.9191C30.2325 10.1497 29.1583 8.54197 27.8041 7.18775C26.4498 5.83353 24.8421 4.75934 23.0727 4.02651C21.3033 3.29369 19.4069 2.91659 17.4917 2.91675ZM22.1285 25.0141C22.0739 25.1502 21.9909 25.2731 21.8849 25.3745C21.779 25.4758 21.6526 25.5534 21.5142 25.6019C21.3758 25.6505 21.2287 25.6689 21.0826 25.6559C20.9365 25.6429 20.7949 25.5989 20.6673 25.5267L16.7084 22.4505L14.1675 24.7947C14.1085 24.8382 14.0396 24.8663 13.9669 24.8762C13.8943 24.8861 13.8203 24.8776 13.7519 24.8515L14.2389 20.4933L14.2545 20.5056L14.2645 20.4196C14.2645 20.4196 21.3885 13.9337 21.6787 13.6573C21.9725 13.3817 21.8755 13.3219 21.8755 13.3219C21.8923 12.9857 21.3483 13.3219 21.3483 13.3219L11.9092 19.3945L7.9783 18.0557C7.9783 18.0557 7.37455 17.8391 7.31768 17.363C7.25789 16.8905 7.99798 16.6338 7.99798 16.6338L23.6269 10.425C23.6269 10.425 24.9117 9.85254 24.9117 10.8005L22.1285 25.0141Z" fill="white"/>
</svg>
